<?xml version="1.0" encoding="UTF-8" standalone="no"?>
<!DOCTYPE svg PUBLIC "-//W3C//DTD SVG 1.1//EN" "http://www.w3.org/Graphics/SVG/1.1/DTD/svg11.dtd">
<svg width="2097px" height="91px" version="1.1" xmlns="http://www.w3.org/2000/svg" xmlns:xlink="http://www.w3.org/1999/xlink" xml:space="preserve" xmlns:serif="http://www.serif.com/" style="fill-rule:evenodd;clip-rule:evenodd;stroke-linecap:square;stroke-linejoin:round;stroke-miterlimit:1.5;">
    <g transform="matrix(1,0,0,1,-221.86,-884.606)">
        <g transform="matrix(1.0213,0,0,1,-5.15233,34.9934)">
            <path d="M241.86,894.884L2191.63,894.884" style="fill:none;stroke:white;stroke-width:19.79px;"/>
            <g transform="matrix(6.882,0,0,5.03015,2130.98,834.522)">
                <path d="M12,3L13.43,8.312C13.605,8.96 13.692,9.284 13.864,9.549C14.017,9.783 14.217,9.983 14.451,10.136C14.716,10.308 15.04,10.395 15.688,10.57L21,12L15.688,13.43C15.04,13.605 14.716,13.692 14.451,13.864C14.217,14.017 14.017,14.217 13.864,14.451C13.692,14.716 13.605,15.04 13.43,15.688L12,21L10.57,15.688C10.395,15.04 10.308,14.716 10.136,14.451C9.983,14.217 9.783,14.017 9.549,13.864C9.284,13.692 8.96,13.605 8.312,13.43L3,12L8.312,10.57C8.96,10.395 9.284,10.308 9.549,10.136C9.783,9.983 9.983,9.783 10.136,9.549C10.308,9.284 10.395,8.96 10.57,8.312L12,3Z" style="fill:white;fill-rule:nonzero;"/>
            </g>
        </g>
    </g>
</svg>