<?xml version="1.0" encoding="UTF-8" standalone="no"?>
<!DOCTYPE svg PUBLIC "-//W3C//DTD SVG 1.1//EN" "http://www.w3.org/Graphics/SVG/1.1/DTD/svg11.dtd">
<svg width="84px" height="84px" version="1.1" xmlns="http://www.w3.org/2000/svg" xmlns:xlink="http://www.w3.org/1999/xlink" xml:space="preserve" xmlns:serif="http://www.serif.com/" style="fill-rule:evenodd;clip-rule:evenodd;stroke-linejoin:round;stroke-miterlimit:2;">
    <g transform="matrix(1,0,0,1,-13.3325,-15.5548)">
        <g>
            <path d="M65.656,62.922C63.687,64.938 62.476,67.688 62.476,70.727L62.476,71.922L53.387,71.922L53.387,67.125C53.387,65.309 54.109,63.567 55.394,62.282C56.68,60.996 58.422,60.274 60.242,60.274L60.246,60.274C62.063,60.274 63.805,60.996 65.09,62.282C65.293,62.485 65.48,62.696 65.656,62.922Z" style="fill:white;"/>
            <path d="M82.024,76.668L65.254,76.668L65.254,70.727C65.254,66.094 69.004,62.34 73.637,62.34L73.641,62.34C78.27,62.34 82.024,66.094 82.024,70.727L82.024,76.668Z" style="fill:white;"/>
            <path d="M84.801,71.922L84.801,70.727C84.801,67.688 83.59,64.938 81.621,62.922C81.793,62.696 81.985,62.485 82.188,62.281C83.473,60.996 85.215,60.274 87.036,60.274C88.852,60.274 90.598,60.996 91.879,62.281C93.168,63.567 93.891,65.309 93.891,67.125L93.891,71.922L84.801,71.922Z" style="fill:white;"/>
            <path d="M87.035,47.961C89.668,47.961 91.805,50.098 91.805,52.727C91.805,55.36 89.668,57.496 87.035,57.496C84.403,57.496 82.266,55.36 82.266,52.727C82.266,50.098 84.403,47.961 87.035,47.961Z" style="fill:white;"/>
            <path d="M73.64,47.746C76.898,47.746 79.547,50.391 79.547,53.653C79.547,56.914 76.898,59.563 73.64,59.563C70.375,59.563 67.726,56.914 67.726,53.653C67.726,50.391 70.375,47.746 73.64,47.746Z" style="fill:white;"/>
            <path d="M60.242,47.961C62.871,47.961 65.008,50.098 65.008,52.727C65.008,55.36 62.871,57.496 60.242,57.496C57.61,57.496 55.477,55.36 55.477,52.727C55.477,50.098 57.61,47.961 60.242,47.961Z" style="fill:white;"/>
            <path d="M52.77,51.668C52.723,52.015 52.696,52.367 52.696,52.726C52.696,55.148 53.837,57.3 55.61,58.679C54.817,59.116 54.083,59.663 53.43,60.316C51.626,62.12 50.61,64.57 50.61,67.124L50.61,73.312C50.61,74.077 51.231,74.698 51.997,74.698L62.477,74.698L62.477,78.054C62.477,78.82 63.098,79.445 63.864,79.445L66.11,79.445L66.11,101.668L24.446,101.668L24.446,90.555L53.61,90.555C57.445,90.555 60.555,87.445 60.555,83.609C60.555,81.769 59.825,80.004 58.524,78.699C57.219,77.398 55.453,76.668 53.61,76.668L30.001,76.668L30.001,68.562C30.001,67.793 29.38,67.172 28.61,67.172C27.844,67.172 27.223,67.793 27.223,68.562L27.223,78.055C27.223,78.82 27.844,79.445 28.61,79.445L53.61,79.445C54.715,79.445 55.774,79.883 56.559,80.664C57.341,81.445 57.778,82.504 57.778,83.609C57.778,85.91 55.911,87.777 53.61,87.777L21.778,87.777C20.274,87.777 18.833,87.18 17.77,86.121C16.708,85.055 16.11,83.613 16.11,82.109L16.11,63.246C16.11,60.18 17.333,57.231 19.504,55.059C21.676,52.887 24.622,51.668 27.692,51.668L52.77,51.668Z" style="fill:white;"/>
            <path d="M42.5,18.332C50.934,18.332 57.777,25.18 57.777,33.609C57.777,42.043 50.934,48.89 42.5,48.89C34.067,48.89 27.223,42.043 27.223,33.609C27.223,25.18 34.067,18.332 42.5,18.332Z" style="fill:white;"/>
            <g transform="matrix(1,0,0,1,5,10)">
                <path d="M27.879,38.891L22.692,38.891C18.883,38.891 15.231,40.403 12.54,43.094C9.848,45.786 8.333,49.438 8.333,53.246L8.333,72.109C8.333,74.351 9.223,76.5 10.805,78.082C12.364,79.64 14.465,80.523 16.669,80.555L16.669,93.055C16.669,93.82 17.29,94.445 18.055,94.445L62.5,94.445C63.266,94.445 63.891,93.82 63.891,93.055L63.891,69.446L78.411,69.446C79.18,69.446 79.801,68.821 79.801,68.055L79.801,64.699L90.278,64.699C91.044,64.699 91.669,64.078 91.669,63.313L91.669,57.125C91.669,54.571 90.653,52.121 88.845,50.317C88.196,49.664 87.462,49.117 86.669,48.68C88.439,47.301 89.583,45.149 89.583,42.727C89.583,38.563 86.196,35.184 82.036,35.184C79.392,35.184 77.06,36.547 75.712,38.61C74.138,36.407 71.556,34.965 68.642,34.965C65.724,34.965 63.142,36.407 61.564,38.61C60.216,36.547 57.892,35.184 55.243,35.184C52.478,35.184 50.056,36.672 48.743,38.895C48.7,38.891 48.657,38.891 48.61,38.891L47.122,38.891C52.189,35.688 55.556,30.043 55.556,23.61C55.556,13.649 47.466,5.555 37.501,5.555C27.536,5.555 19.446,13.649 19.446,23.61C19.446,30.043 22.813,35.688 27.879,38.891L27.879,38.891ZM47.77,41.668L22.692,41.668C19.622,41.668 16.676,42.887 14.504,45.059C12.333,47.231 11.11,50.18 11.11,53.246L11.11,72.109C11.11,73.613 11.708,75.055 12.77,76.121C13.833,77.18 15.274,77.777 16.778,77.777L48.61,77.777C50.911,77.777 52.778,75.91 52.778,73.609C52.778,72.504 52.341,71.445 51.559,70.664C50.774,69.883 49.715,69.445 48.61,69.445L23.61,69.445C22.844,69.445 22.223,68.82 22.223,68.055L22.223,58.562C22.223,57.793 22.844,57.172 23.61,57.172C24.38,57.172 25.001,57.793 25.001,58.562L25.001,66.668L48.61,66.668C50.453,66.668 52.219,67.398 53.524,68.699C54.825,70.004 55.555,71.769 55.555,73.609C55.555,77.445 52.445,80.555 48.61,80.555L19.446,80.555L19.446,91.668L61.11,91.668L61.11,69.445L58.864,69.445C58.098,69.445 57.477,68.82 57.477,68.054L57.477,64.698L46.997,64.698C46.231,64.698 45.61,64.077 45.61,63.312L45.61,57.124C45.61,54.57 46.626,52.12 48.43,50.316C49.083,49.663 49.817,49.116 50.61,48.679C48.837,47.3 47.696,45.148 47.696,42.726C47.696,42.367 47.723,42.015 47.77,41.667L47.77,41.668ZM77.024,66.668L60.254,66.668L60.254,60.727C60.254,56.094 64.004,52.34 68.637,52.34L68.641,52.34C73.27,52.34 77.024,56.094 77.024,60.727L77.024,66.668ZM79.801,61.922L88.891,61.922L88.891,57.125C88.891,55.309 88.168,53.567 86.879,52.281C85.598,50.996 83.852,50.274 82.036,50.274C80.215,50.274 78.473,50.996 77.188,52.281C76.985,52.485 76.793,52.696 76.621,52.922C78.59,54.938 79.801,57.688 79.801,60.727L79.801,61.922ZM60.656,52.922C60.481,52.696 60.293,52.485 60.09,52.282C58.805,50.996 57.063,50.274 55.246,50.274L55.242,50.274C53.422,50.274 51.68,50.996 50.394,52.282C49.109,53.567 48.387,55.309 48.387,57.125L48.387,61.922L57.476,61.922L57.476,60.727C57.476,57.688 58.687,54.938 60.656,52.922L60.656,52.922ZM60.938,47.676C60.617,48.043 60.262,48.379 59.875,48.68C60.668,49.117 61.402,49.664 62.055,50.317C62.332,50.594 62.59,50.887 62.828,51.192C63.09,51.035 63.352,50.887 63.625,50.746C62.504,49.957 61.578,48.899 60.938,47.676L60.938,47.676ZM76.34,47.676C75.695,48.899 74.773,49.957 73.648,50.746C73.922,50.887 74.187,51.035 74.445,51.192C74.687,50.887 74.945,50.594 75.222,50.317C75.871,49.664 76.609,49.118 77.398,48.68C77.015,48.379 76.66,48.043 76.34,47.676L76.34,47.676ZM68.64,37.746C71.898,37.746 74.547,40.391 74.547,43.653C74.547,46.914 71.898,49.563 68.64,49.563C65.375,49.563 62.726,46.914 62.726,43.653C62.726,40.391 65.375,37.746 68.64,37.746ZM82.035,37.961C84.668,37.961 86.805,40.098 86.805,42.727C86.805,45.36 84.668,47.496 82.035,47.496C79.403,47.496 77.266,45.36 77.266,42.727C77.266,40.098 79.403,37.961 82.035,37.961ZM55.242,37.961C57.871,37.961 60.008,40.098 60.008,42.727C60.008,45.36 57.871,47.496 55.242,47.496C52.61,47.496 50.477,45.36 50.477,42.727C50.477,40.098 52.61,37.961 55.242,37.961ZM37.5,8.332C45.934,8.332 52.777,15.18 52.777,23.609C52.777,32.043 45.934,38.89 37.5,38.89C29.067,38.89 22.223,32.043 22.223,23.609C22.223,15.18 29.067,8.332 37.5,8.332Z"/>
            </g>
        </g>
    </g>
</svg>