<?xml version="1.0" encoding="UTF-8" standalone="no"?>
<!DOCTYPE svg PUBLIC "-//W3C//DTD SVG 1.1//EN" "http://www.w3.org/Graphics/SVG/1.1/DTD/svg11.dtd">
<svg width="94px" height="94px" version="1.1" xmlns="http://www.w3.org/2000/svg" xmlns:xlink="http://www.w3.org/1999/xlink" xml:space="preserve" xmlns:serif="http://www.serif.com/" style="fill-rule:evenodd;clip-rule:evenodd;stroke-linejoin:round;stroke-miterlimit:2;">
    <g transform="matrix(1,0,0,1,-8.1249,-9.98547)">
        <g transform="matrix(1,0,0,1,0,-3.13953)">
            <path d="M55,75.625C50.856,75.625 46.883,73.981 43.953,71.047C41.019,68.117 39.375,64.145 39.375,60C39.375,55.855 41.019,51.883 43.953,48.953C46.883,46.019 50.855,44.375 55,44.375C59.145,44.375 63.117,46.019 66.047,48.953C68.981,51.883 70.625,55.855 70.625,60C70.621,64.141 68.973,68.113 66.043,71.043C63.113,73.973 59.141,75.621 55,75.625Z" style="fill:white;"/>
            <path d="M95.625,85C95.621,89.141 93.973,93.113 91.043,96.043C88.113,98.973 84.141,100.621 80,100.625L30,100.625C25.859,100.621 21.887,98.973 18.957,96.043C16.027,93.113 14.379,89.141 14.375,85L14.375,35C14.379,30.859 16.027,26.887 18.957,23.957C21.887,21.027 25.859,19.379 30,19.375L80,19.375C84.141,19.379 88.113,21.027 91.043,23.957C93.973,26.887 95.621,30.859 95.625,35L95.625,85ZM55,38.125C49.199,38.125 43.633,40.43 39.531,44.531C35.429,48.633 33.125,54.199 33.125,60C33.125,65.801 35.43,71.367 39.531,75.469C43.632,79.571 49.199,81.875 55,81.875C60.801,81.875 66.367,79.571 70.469,75.469C74.571,71.368 76.875,65.801 76.875,60C76.867,54.199 74.563,48.641 70.461,44.539C66.36,40.438 60.801,38.133 55,38.125ZM87.031,33.437C87.031,30.417 84.582,27.968 81.562,27.968C79.351,27.968 77.355,29.3 76.512,31.343C75.664,33.386 76.133,35.742 77.695,37.304C79.258,38.867 81.613,39.335 83.656,38.488C85.699,37.644 87.031,35.648 87.031,33.437Z" style="fill:white;"/>
            <g transform="matrix(1,0,0,1,5,10)">
                <path d="M75,3.125L25,3.125C19.199,3.133 13.641,5.438 9.539,9.539C5.437,13.641 3.133,19.199 3.125,25L3.125,75C3.133,80.801 5.437,86.359 9.539,90.461C13.641,94.563 19.199,96.867 25,96.875L75,96.875C80.801,96.867 86.359,94.563 90.461,90.461C94.563,86.36 96.867,80.801 96.875,75L96.875,25C96.867,19.199 94.563,13.641 90.461,9.539C86.359,5.438 80.801,3.133 75,3.125ZM90.625,75C90.621,79.141 88.973,83.113 86.043,86.043C83.113,88.973 79.141,90.621 75,90.625L25,90.625C20.859,90.621 16.887,88.973 13.957,86.043C11.027,83.113 9.379,79.141 9.375,75L9.375,25C9.379,20.859 11.027,16.887 13.957,13.957C16.887,11.027 20.859,9.379 25,9.375L75,9.375C79.141,9.379 83.113,11.027 86.043,13.957C88.973,16.887 90.621,20.859 90.625,25L90.625,75ZM50,28.125C44.199,28.125 38.633,30.43 34.531,34.531C30.429,38.633 28.125,44.199 28.125,50C28.125,55.801 30.43,61.367 34.531,65.469C38.632,69.571 44.199,71.875 50,71.875C55.801,71.875 61.367,69.571 65.469,65.469C69.571,61.368 71.875,55.801 71.875,50C71.867,44.199 69.563,38.641 65.461,34.539C61.359,30.438 55.801,28.133 50,28.125L50,28.125ZM50,65.625C45.856,65.625 41.883,63.981 38.953,61.047C36.019,58.117 34.375,54.145 34.375,50C34.375,45.855 36.019,41.883 38.953,38.953C41.883,36.019 45.855,34.375 50,34.375C54.145,34.375 58.117,36.019 61.047,38.953C63.981,41.883 65.625,45.855 65.625,50C65.621,54.14 63.973,58.113 61.043,61.043C58.113,63.973 54.141,65.621 50,65.625L50,65.625ZM82.031,23.437C82.031,25.648 80.699,27.644 78.656,28.488C76.613,29.335 74.258,28.867 72.695,27.304C71.133,25.742 70.664,23.386 71.512,21.343C72.355,19.3 74.351,17.968 76.562,17.968C79.582,17.968 82.031,20.418 82.031,23.437L82.031,23.437Z" style="fill-rule:nonzero;"/>
            </g>
        </g>
    </g>
</svg>