<?xml version="1.0" encoding="UTF-8" standalone="no"?>
<!DOCTYPE svg PUBLIC "-//W3C//DTD SVG 1.1//EN" "http://www.w3.org/Graphics/SVG/1.1/DTD/svg11.dtd">
<svg width="56px" height="63px" version="1.1" xmlns="http://www.w3.org/2000/svg" xmlns:xlink="http://www.w3.org/1999/xlink" xml:space="preserve" xmlns:serif="http://www.serif.com/" style="fill-rule:evenodd;clip-rule:evenodd;stroke-linejoin:round;stroke-miterlimit:2;">
    <g transform="matrix(1,0,0,1,-4.17238,-4.18046)">
        <g transform="matrix(1,0,0,1,0.00238058,3.67876)">
            <path d="M36.56,20.23L34.08,20.23L34.08,13.72C34.08,7.18 29.16,1.46 22.63,1.03C15.48,0.55 9.5,6.24 9.5,13.29L9.5,20.23L7.02,20.23C5.72,20.23 4.67,21.28 4.67,22.58L4.67,49.18C4.67,50.28 5.42,51.22 6.48,51.47L7.86,51.79C14.55,53.36 21.45,51.45 28.25,50.73C28.25,50.68 28.24,50.63 28.24,50.58C27.84,45.51 29.67,40.53 33.26,36.94C34.9,35.3 36.82,34.03 38.91,33.16L38.91,22.58C38.91,21.28 37.86,20.23 36.56,20.23ZM24.97,42.02L18.61,42.02L19.59,35.34C18,34.44 17,32.64 17.36,30.62C17.68,28.8 19.16,27.32 20.97,27C23.82,26.49 26.3,28.67 26.3,31.43C26.3,33.12 25.37,34.57 24,35.34L24.97,42.02ZM29.05,20.23L14.53,20.23L14.53,14.02C14.53,10.33 17.18,7.04 20.84,6.57C25.26,6 29.05,9.45 29.05,13.76L29.05,20.23Z" style="fill:white;fill-opacity:0;fill-rule:nonzero;stroke:white;stroke-width:1px;"/>
            <path d="M59.28,48.05C58.75,41.36 53.32,35.95 46.63,35.41C43.83,35.19 41.18,35.81 38.91,37.05C34.32,39.54 31.3,44.57 31.73,50.25L31.73,50.31C32.26,57 37.68,62.41 44.38,62.95C52.88,63.62 59.96,56.56 59.28,48.05ZM45.51,52.59C45.13,52.59 44.76,52.51 44.42,52.4L40.47,56.35C40.18,56.64 39.79,56.79 39.41,56.79C39.03,56.79 38.64,56.64 38.35,56.35C37.76,55.76 37.76,54.81 38.35,54.23L42.3,50.28C42.18,49.94 42.11,49.57 42.11,49.19C42.11,47.85 42.89,46.7 44.01,46.15L44.01,40.59C44.01,39.76 44.68,39.09 45.51,39.09C46.34,39.09 47.01,39.76 47.01,40.59L47.01,46.16C48.13,46.72 48.91,47.86 48.91,49.2C48.91,51.08 47.39,52.6 45.51,52.6L45.51,52.59Z" style="fill:white;fill-opacity:0;fill-rule:nonzero;stroke:white;stroke-width:1px;"/>
        </g>
    </g>
</svg>