<?xml version="1.0" encoding="UTF-8" standalone="no"?>
<!DOCTYPE svg PUBLIC "-//W3C//DTD SVG 1.1//EN" "http://www.w3.org/Graphics/SVG/1.1/DTD/svg11.dtd">
<svg width="763px" height="544px" version="1.1" xmlns="http://www.w3.org/2000/svg" xmlns:xlink="http://www.w3.org/1999/xlink" xml:space="preserve" xmlns:serif="http://www.serif.com/" style="fill-rule:evenodd;clip-rule:evenodd;stroke-linejoin:round;stroke-miterlimit:2;">
    <g transform="matrix(1,0,0,1,-57.3708,-222.922)">
        <g>
            <path d="M633.991,523.042L749.441,456.362C753.161,454.382 757.141,453.462 761.031,453.462C765.411,453.462 769.661,454.642 773.301,456.742C777.011,458.882 780.191,461.992 782.361,465.752L782.741,466.382C784.481,469.682 785.501,473.622 785.501,478.042L785.501,660.572C785.501,665.252 784.331,669.432 782.341,672.882C780.161,676.652 776.991,679.752 773.291,681.892L772.631,682.292C769.161,684.132 765.181,685.162 761.031,685.162C756.901,685.162 752.681,684.122 748.771,681.842L633.991,615.572L633.991,523.042Z" style="fill:white;"/>
            <rect x="546.461" y="484.302" width="53.65" height="170" style="fill:white;"/>
            <path d="M455.081,353.372C465.301,363.592 471.631,377.742 471.631,393.372C471.631,409.012 465.311,423.172 455.081,433.362C444.861,443.582 430.701,449.912 415.081,449.912C399.441,449.912 385.281,443.592 375.091,433.362C364.871,423.142 358.531,408.992 358.531,393.372C358.531,377.712 364.851,363.552 375.091,353.382C385.311,343.162 399.461,336.822 415.081,336.822C430.701,336.822 444.861,343.152 455.081,353.372Z" style="fill:white;"/>
            <path d="M297.031,285.072C314.491,302.532 325.311,326.692 325.311,353.362C325.311,380.032 314.501,404.182 297.041,421.642C279.581,439.102 255.421,449.912 228.751,449.912C202.081,449.912 177.931,439.102 160.471,421.642C143.011,404.182 132.201,380.032 132.201,353.362C132.201,326.692 143.011,302.532 160.471,285.072C177.931,267.612 202.081,256.802 228.751,256.802C255.421,256.802 279.571,267.612 297.031,285.072Z" style="fill:white;"/>
            <path d="M111.331,410.192C117.721,423.382 126.281,435.332 136.531,445.582C160.141,469.192 192.751,483.792 228.751,483.792C264.751,483.792 297.371,469.192 320.981,445.582C325.351,441.212 329.401,436.542 333.121,431.592C337.611,441.202 343.741,449.892 351.211,457.302C367.571,473.652 390.171,483.792 415.081,483.792C440.031,483.792 462.661,473.662 479.021,457.242C489.941,446.322 498.081,432.612 502.291,417.292C503.241,418.262 504.141,419.292 504.981,420.372C509.741,426.432 512.581,434.092 512.581,442.392L512.581,696.232C512.581,706.082 508.531,715.052 502.041,721.542C495.551,728.032 486.581,732.072 476.731,732.072L127.101,732.072C117.251,732.072 108.281,728.032 101.791,721.542C95.301,715.052 91.251,706.082 91.251,696.232L91.251,442.392C91.251,433.362 94.651,425.062 100.211,418.752C103.321,415.222 107.101,412.302 111.331,410.192ZM164.331,688.182L439.501,688.182C448.851,688.182 456.441,680.592 456.441,671.242C456.441,661.892 448.851,654.302 439.501,654.302L164.331,654.302C154.981,654.302 147.391,661.892 147.391,671.242C147.391,680.592 154.981,688.182 164.331,688.182Z" style="fill:white;"/>
            <g transform="matrix(1,0,0,1,15.0408,71.1019)">
                <path d="M489.24,307.3C499.98,311.96 509.36,319.27 516.51,328.39C525.85,340.24 531.42,355.15 531.42,371.29L531.42,379.32L602.01,379.32C611.36,379.32 618.95,386.91 618.95,396.26L618.95,412.93L717.94,355.82C727.08,350.79 736.7,348.48 745.99,348.48C756.32,348.48 766.4,351.32 775.2,356.4C783.93,361.44 791.39,368.75 796.56,377.71L797.19,378.9C801.7,387.17 804.34,396.68 804.34,406.94L804.34,589.47C804.34,600.27 801.46,610.2 796.54,618.72C791.37,627.68 783.91,634.99 775.19,640.03L774.02,640.65C765.49,645.33 755.85,647.94 745.99,647.94C736.33,647.94 726.32,645.44 716.86,639.98L618.95,583.48L618.95,600.14C618.95,609.49 611.36,617.08 602.01,617.08L531.42,617.08L531.42,625.13C531.42,644.31 523.57,661.75 510.94,674.38C498.32,687 480.87,694.85 461.69,694.85L112.06,694.85C92.88,694.85 75.43,687 62.81,674.38C50.18,661.75 42.33,644.31 42.33,625.13L42.33,371.29C42.33,353.71 48.93,337.59 59.77,325.29C66.78,317.33 75.61,310.97 85.6,306.86C84.08,298.89 83.28,290.67 83.28,282.26C83.28,246.26 97.88,213.64 121.49,190.03C145.1,166.42 177.71,151.82 213.71,151.82C249.71,151.82 282.32,166.42 305.93,190.03C323.12,207.22 335.54,229.2 341.02,253.78C356.86,240.12 377.5,231.84 400.04,231.84C424.99,231.84 447.62,241.97 463.98,258.33C477,271.35 486.07,288.33 489.24,307.3ZM149.29,617.08C139.94,617.08 132.35,609.49 132.35,600.14C132.35,590.79 139.94,583.2 149.29,583.2L424.46,583.2C433.81,583.2 441.4,590.79 441.4,600.14C441.4,609.49 433.81,617.08 424.46,617.08L149.29,617.08ZM96.29,339.09C92.06,341.2 88.28,344.12 85.17,347.65C79.61,353.96 76.21,362.26 76.21,371.29L76.21,625.13C76.21,634.98 80.26,643.95 86.75,650.44C93.24,656.93 102.21,660.97 112.06,660.97L461.69,660.97C471.54,660.97 480.51,656.93 487,650.44C493.49,643.95 497.54,634.98 497.54,625.13L497.54,371.29C497.54,362.99 494.7,355.33 489.94,349.27C489.1,348.19 488.2,347.16 487.25,346.19C483.04,361.51 474.9,375.22 463.98,386.14C447.62,402.56 424.99,412.69 400.04,412.69C375.13,412.69 352.53,402.55 336.17,386.2C328.7,378.79 322.57,370.1 318.08,360.49C314.36,365.44 310.31,370.11 305.94,374.48C282.33,398.09 249.71,412.69 213.71,412.69C177.71,412.69 145.1,398.09 121.49,374.48C111.24,364.23 102.68,352.28 96.29,339.09ZM281.99,213.97C264.53,196.51 240.38,185.7 213.71,185.7C187.04,185.7 162.89,196.51 145.43,213.97C127.97,231.43 117.16,255.59 117.16,282.26C117.16,308.93 127.97,333.08 145.43,350.54C162.89,368 187.04,378.81 213.71,378.81C240.38,378.81 264.54,368 282,350.54C299.46,333.08 310.27,308.93 310.27,282.26C310.27,255.59 299.45,231.43 281.99,213.97ZM440.04,282.27C429.82,272.05 415.66,265.72 400.04,265.72C384.42,265.72 370.27,272.06 360.05,282.28C349.81,292.45 343.49,306.61 343.49,322.27C343.49,337.89 349.83,352.04 360.05,362.26C370.24,372.49 384.4,378.81 400.04,378.81C415.66,378.81 429.82,372.48 440.04,362.26C450.27,352.07 456.59,337.91 456.59,322.27C456.59,306.64 450.26,292.49 440.04,282.27ZM531.42,413.2L531.42,583.2L585.07,583.2L585.07,413.2L531.42,413.2ZM618.95,451.94L618.95,544.47L733.73,610.74C737.64,613.02 741.86,614.06 745.99,614.06C750.14,614.06 754.12,613.03 757.59,611.19L758.25,610.79C761.95,608.65 765.12,605.55 767.3,601.78C769.29,598.33 770.46,594.15 770.46,589.47L770.46,406.94C770.46,402.52 769.44,398.58 767.7,395.28L767.32,394.65C765.15,390.89 761.97,387.78 758.26,385.64C754.62,383.54 750.37,382.36 745.99,382.36C742.1,382.36 738.12,383.28 734.4,385.26L618.95,451.94Z" style="fill-rule:nonzero;"/>
            </g>
        </g>
    </g>
</svg>