<?xml version="1.0" encoding="UTF-8" standalone="no"?>
<!DOCTYPE svg PUBLIC "-//W3C//DTD SVG 1.1//EN" "http://www.w3.org/Graphics/SVG/1.1/DTD/svg11.dtd">
<svg width="56px" height="56px" version="1.1" xmlns="http://www.w3.org/2000/svg" xmlns:xlink="http://www.w3.org/1999/xlink" xml:space="preserve" xmlns:serif="http://www.serif.com/" style="fill-rule:evenodd;clip-rule:evenodd;stroke-linejoin:round;stroke-miterlimit:2;">
    <g transform="matrix(1,0,0,1,-2.00092,-3.25969)">
        <g transform="matrix(1,0,0,1,0.000474924,1.25969)">
            <path d="M22,38.015C22.003,39.073 22.424,40.088 23.17,40.837C24.049,41.696 25.272,42.112 26.493,41.967L27.267,38.888C26.848,38.959 26.425,38.996 26,39C24.611,38.967 23.246,38.63 22,38.015Z" style="fill:white;fill-rule:nonzero;"/>
        </g>
        <g transform="matrix(1,0,0,1,0.000474924,1.25969)">
            <path d="M2.01,56.869C1.97,57.151 2.057,57.437 2.246,57.649C2.441,57.874 2.725,58.003 3.023,58L16,58L16,55C16,53.903 16.903,53 18,53L23.722,53L25.984,44C23.196,44.004 20.759,42.052 20.153,39.331L11.437,42.187C6.708,43.747 3.258,47.87 2.558,52.8L2.01,56.869Z" style="fill:white;fill-rule:nonzero;"/>
        </g>
        <g transform="matrix(1,0,0,1,0.000474924,1.25969)">
            <path d="M14,25C14.486,25 14.906,25.355 14.986,25.835L15.517,29.005C15.81,30.763 16.809,32.327 18.28,33.332C18.565,33.524 18.871,33.739 19.193,33.967C21.112,35.318 23.5,37 26,37C26.618,36.986 27.231,36.882 27.82,36.691L28.777,32.878C29.199,31.192 30.727,29.999 32.465,30L36.224,30C36.338,29.674 36.425,29.34 36.484,29L37.014,25.834C37.095,25.355 37.514,25 38,25C39.097,25 40,24.097 40,23C40,21.903 39.097,21 38,21C37.451,21 37,20.549 37,20C37.01,19.278 36.794,18.571 36.382,17.979C36.08,17.507 35.594,17.181 35.043,17.079C31.965,16.692 28.998,15.678 26.327,14.1C26.123,13.972 25.862,13.975 25.661,14.107C22.995,15.684 20.034,16.697 16.961,17.084C15.704,17.468 14.882,18.691 15,20C15,20.549 14.549,21 14,21C12.903,21 12,21.903 12,23C12,24.097 12.903,25 14,25Z" style="fill:white;fill-rule:nonzero;"/>
        </g>
        <g transform="matrix(1,0,0,1,0.000474924,1.25969)">
            <ellipse cx="42" cy="43" rx="4" ry="3" style="fill:white;"/>
        </g>
        <g transform="matrix(1,0,0,1,0.000474924,1.25969)">
            <path d="M12,19.549C12.333,19.351 12.692,19.203 13.068,19.109C13.268,17.133 14.735,15.505 16.679,15.1C19.478,14.75 22.176,13.831 24.606,12.4C25.452,11.867 26.533,11.864 27.382,12.393C29.816,13.825 32.517,14.744 35.319,15.093C36.411,15.269 37.383,15.891 38,16.809C38.487,17.491 38.805,18.28 38.928,19.109C39.304,19.203 39.663,19.351 39.996,19.549L39.996,16C39.996,8.32 33.676,2 25.996,2C18.316,2 11.996,8.32 11.996,16L12,19.549Z" style="fill:white;fill-rule:nonzero;"/>
        </g>
        <g transform="matrix(1,0,0,1,0.000474924,1.25969)">
            <rect x="18" y="55" width="36.001" height="3" style="fill:white;"/>
        </g>
        <g transform="matrix(1,0,0,1,0.000474924,1.25969)">
            <path d="M32.465,32C31.641,31.999 30.917,32.564 30.717,33.364L25.784,53L53.221,53L57.945,34.236C57.981,34.093 57.999,33.947 57.999,33.8C57.999,32.813 57.187,32.001 56.2,32L32.465,32ZM42,48C38.691,48 36,45.757 36,43C36,40.243 38.691,38 42,38C45.309,38 48,40.243 48,43C48,45.757 45.309,48 42,48Z" style="fill:white;fill-rule:nonzero;"/>
        </g>
    </g>
</svg>