<?xml version="1.0" encoding="UTF-8" standalone="no"?>
<!DOCTYPE svg PUBLIC "-//W3C//DTD SVG 1.1//EN" "http://www.w3.org/Graphics/SVG/1.1/DTD/svg11.dtd">
<svg width="61px" height="40px" version="1.1" xmlns="http://www.w3.org/2000/svg" xmlns:xlink="http://www.w3.org/1999/xlink" xml:space="preserve" xmlns:serif="http://www.serif.com/" style="fill-rule:evenodd;clip-rule:evenodd;stroke-linejoin:round;stroke-miterlimit:2;">
    <g transform="matrix(1,0,0,1,-9.79,-20.48)">
        <path d="M69.2,20.48L16.54,20.48C15.991,20.48 15.54,20.931 15.54,21.48L15.54,31.27C15.54,31.819 15.991,32.27 16.54,32.27C17.089,32.27 17.54,31.819 17.54,31.27L17.54,22.48L68.2,22.48L68.2,46.26L39.8,46.26C39.251,46.26 38.8,46.711 38.8,47.26C38.8,47.809 39.251,48.26 39.8,48.26L69.2,48.26C69.749,48.26 70.2,47.809 70.2,47.26L70.2,21.48C70.2,20.931 69.749,20.48 69.2,20.48Z" style="fill:white;fill-rule:nonzero;"/>
        <path d="M22.05,35C15.324,35 9.79,40.534 9.79,47.26C9.79,53.986 15.324,59.52 22.05,59.52C28.776,59.52 34.31,53.986 34.31,47.26C34.305,40.536 28.774,35.005 22.05,35ZM22.05,57.51C16.422,57.51 11.79,52.878 11.79,47.25C11.79,41.622 16.422,36.99 22.05,36.99C27.678,36.99 32.31,41.622 32.31,47.25C32.31,47.253 32.31,47.257 32.31,47.26C32.305,52.886 27.676,57.515 22.05,57.52L22.05,57.51Z" style="fill:white;fill-rule:nonzero;"/>
        <path d="M28.45,48L22.35,48L22.35,42.65C22.35,42.101 21.899,41.65 21.35,41.65C20.801,41.65 20.35,42.101 20.35,42.65L20.35,49C20.35,49.549 20.801,50 21.35,50L28.45,50C28.999,50 29.45,49.549 29.45,49C29.45,48.451 28.999,48 28.45,48Z" style="fill:white;fill-rule:nonzero;"/>
        <path d="M53.54,34.37C53.54,34.357 53.54,34.343 53.54,34.33C53.54,28.477 48.723,23.66 42.87,23.66C37.017,23.66 32.2,28.477 32.2,34.33C32.2,40.183 37.017,45 42.87,45C48.706,44.995 53.513,40.206 53.54,34.37ZM34.21,34.37C34.21,34.357 34.21,34.343 34.21,34.33C34.21,29.574 38.124,25.66 42.88,25.66C47.636,25.66 51.55,29.574 51.55,34.33C51.55,39.086 47.636,43 42.88,43C42.877,43 42.873,43 42.87,43C38.133,42.995 34.232,39.107 34.21,34.37Z" style="fill:white;fill-rule:nonzero;"/>
        <path d="M43.59,41.75C45.951,41.595 47.85,39.691 48,37.33C47.85,34.966 45.944,33.06 43.58,32.91L43.58,29.8C44.016,29.907 44.403,30.157 44.68,30.51C44.869,30.751 45.16,30.892 45.466,30.892C46.015,30.892 46.466,30.44 46.466,29.892C46.466,29.696 46.408,29.504 46.3,29.34C45.641,28.47 44.661,27.898 43.58,27.75L43.58,27C43.58,26.451 43.129,26 42.58,26C42.031,26 41.58,26.451 41.58,27L41.58,27.86C40.006,28.24 38.865,29.623 38.79,31.24C38.865,32.857 40.006,34.24 41.58,34.62L41.58,39.56C40.543,39.28 39.791,38.371 39.71,37.3C39.71,36.751 39.259,36.3 38.71,36.3C38.161,36.3 37.71,36.751 37.71,37.3C37.83,39.46 39.446,41.264 41.58,41.62L41.58,41.68C41.58,41.692 41.579,41.703 41.579,41.715C41.579,42.267 42.033,42.721 42.585,42.721C43.123,42.721 43.571,42.288 43.59,41.75ZM46,37.33C45.873,38.603 44.854,39.618 43.58,39.74L43.58,34.92C44.854,35.042 45.873,36.057 46,37.33ZM40.8,31.27C40.816,30.736 41.118,30.251 41.59,30L41.59,32.45C41.145,32.216 40.847,31.771 40.8,31.27Z" style="fill:white;fill-rule:nonzero;"/>
    </g>
</svg>