<?xml version="1.0" encoding="UTF-8" standalone="no"?>
<!DOCTYPE svg PUBLIC "-//W3C//DTD SVG 1.1//EN" "http://www.w3.org/Graphics/SVG/1.1/DTD/svg11.dtd">
<svg width="68px" height="83px" version="1.1" xmlns="http://www.w3.org/2000/svg" xmlns:xlink="http://www.w3.org/1999/xlink" xml:space="preserve" xmlns:serif="http://www.serif.com/" style="fill-rule:evenodd;clip-rule:evenodd;stroke-linejoin:round;stroke-miterlimit:2;">
    <g transform="matrix(1,0,0,1,1.60656,-2.87579)">
        <g id="noun-secure-7167833.svg" transform="matrix(0.611028,0,0,0.611028,32,44.1202)">
            <g transform="matrix(1,0,0,1,-55,-67.5)">
                <g transform="matrix(1,0,0,1,5,10)">
                    <path d="M89.828,16.109C89.68,15.371 88.949,14.89 88.207,15.039C76.266,17.508 59.406,15.718 51.156,2.539C51.066,2.39 50.945,2.257 50.804,2.16C50.195,1.699 49.336,1.832 48.882,2.441C39.164,15.519 19.652,17.121 11.843,15.05C11.738,15.019 11.621,14.999 11.5,14.999C10.75,14.999 10.129,15.62 10.129,16.378L10.129,33.737C10.129,59.296 24.77,83.296 49.289,97.928C49.507,98.049 49.75,98.12 50,98.12C50.25,98.12 50.488,98.049 50.691,97.94C75.222,83.311 89.863,59.311 89.863,33.749L89.859,16.39C89.859,16.288 89.851,16.198 89.828,16.109L89.828,16.109ZM87.121,33.738C87.121,58.078 73.262,80.976 50,95.136C26.738,80.976 12.879,58.077 12.879,33.738L12.879,18.078C21.957,19.699 39.688,17.668 49.91,5.578C58.801,17.941 74.949,20.101 87.121,18.031L87.121,33.738ZM48.719,14.308C37.828,22.847 24.821,23.988 19.731,24.078C18.981,24.089 18.379,24.699 18.379,25.449L18.379,33.738C18.379,54.91 29.629,74.718 49.231,88.097C49.45,88.257 49.72,88.335 50.001,88.335C50.282,88.335 50.552,88.257 50.763,88.097C70.372,74.718 81.615,54.906 81.615,33.738L81.615,25.589C81.615,25.218 81.466,24.871 81.204,24.609C80.943,24.347 80.583,24.199 80.216,24.218C79.775,24.238 79.337,24.238 78.896,24.238C67.587,24.238 57.775,20.816 50.486,14.359C49.99,13.921 49.24,13.898 48.72,14.308L48.719,14.308ZM78.871,33.738C78.871,53.699 68.359,72.449 50,85.289C31.641,72.441 21.129,53.699 21.129,33.738L21.129,26.777C27.027,26.508 39.039,24.926 49.508,17.148C57.199,23.578 67.317,26.976 78.867,26.976L78.871,33.738ZM44.512,55.75L62.102,38.172C62.653,37.641 63.524,37.66 64.043,38.203C64.555,38.734 64.555,39.582 64.043,40.113L45.469,58.679C45.208,58.941 44.868,59.078 44.501,59.07C44.141,59.07 43.79,58.929 43.532,58.672L35.973,51.113C35.473,50.535 35.544,49.672 36.122,49.172C36.641,48.722 37.403,48.73 37.923,49.172L44.512,55.75Z" style="fill:white;fill-rule:nonzero;stroke:white;stroke-width:1px;"/>
                </g>
            </g>
        </g>
    </g>
</svg>