<?xml version="1.0" encoding="UTF-8" standalone="no"?>
<!DOCTYPE svg PUBLIC "-//W3C//DTD SVG 1.1//EN" "http://www.w3.org/Graphics/SVG/1.1/DTD/svg11.dtd">
<svg width="458px" height="340px" version="1.1" xmlns="http://www.w3.org/2000/svg" xmlns:xlink="http://www.w3.org/1999/xlink" xml:space="preserve" xmlns:serif="http://www.serif.com/" style="fill-rule:evenodd;clip-rule:evenodd;stroke-linejoin:round;stroke-miterlimit:2;">
    <g transform="matrix(1,0,0,1,-27.3195,-149.062)">
        <g>
            <rect x="67.356" y="314.515" width="7.802" height="44.714" style="fill:white;"/>
            <path d="M55.33,361.282L39.345,368.16L39.345,305.51L55.33,312.447L55.33,361.282Z" style="fill:white;"/>
            <path d="M258.075,456.751L170.686,456.751C160.332,456.751 151.576,449.741 148.938,440.223L279.823,440.223C277.184,449.741 268.429,456.751 258.075,456.751Z" style="fill:white;"/>
            <path d="M472.655,430.677L424.347,393.134L424.347,318.767L472.655,281.224L472.655,430.677Z" style="fill:white;"/>
            <rect x="391.278" y="321.848" width="21.044" height="68.207" style="fill:white;"/>
            <rect x="352.753" y="314.221" width="26.5" height="83.474" style="fill:white;"/>
            <path d="M340.728,392.577L314.033,392.577C315.939,389.193 317.117,385.348 317.117,381.197C317.117,377.041 315.936,373.191 314.027,369.802L340.728,369.802L340.728,392.577Z" style="fill:white;"/>
            <path d="M305.091,381.197C305.091,387.474 299.988,392.577 293.696,392.577C287.419,392.577 282.316,387.474 282.316,381.197C282.316,374.906 287.419,369.802 293.696,369.802C299.988,369.802 305.091,374.906 305.091,381.197Z" style="fill:white;"/>
            <path d="M245.624,384.673C245.624,389.38 241.796,393.208 237.089,393.208C232.382,393.208 228.569,389.38 228.569,384.673L228.569,326.086C228.569,321.378 232.381,317.551 237.089,317.551C241.796,317.551 245.624,321.379 245.624,326.086L245.624,384.673Z" style="fill:white;"/>
            <path d="M340.728,296.638L340.728,357.777L293.697,357.777C280.792,357.777 270.292,368.292 270.292,381.197C270.292,394.102 280.792,404.602 293.697,404.602L340.728,404.602L340.728,418.871C340.728,424.018 336.548,428.198 331.401,428.198L96.51,428.198C91.363,428.198 87.183,424.018 87.183,418.871L87.183,296.638C87.183,291.491 91.363,287.311 96.51,287.311L331.401,287.311C336.548,287.311 340.728,291.491 340.728,296.638ZM157.883,405.028L148.219,405.028C144.905,405.028 142.206,407.726 142.206,411.041C142.206,414.355 144.904,417.054 148.219,417.054L157.883,417.054C161.197,417.054 163.896,414.356 163.896,411.041C163.896,407.726 161.198,405.028 157.883,405.028ZM319.082,313.356L310.532,313.356C307.217,313.356 304.519,316.054 304.519,319.369C304.519,322.683 307.217,325.382 310.532,325.382L319.082,325.382C322.396,325.382 325.095,322.684 325.095,319.369C325.095,316.055 322.396,313.356 319.082,313.356ZM290.925,313.356L282.361,313.356C279.047,313.356 276.348,316.054 276.348,319.369C276.348,322.683 279.046,325.382 282.361,325.382L290.925,325.382C294.239,325.382 296.938,322.684 296.938,319.369C296.938,316.055 294.239,313.356 290.925,313.356ZM237.089,305.525C225.768,305.525 216.543,314.749 216.543,326.085L216.543,384.672C216.543,396.008 225.767,405.232 237.089,405.232C248.425,405.232 257.649,396.008 257.649,384.672L257.649,326.085C257.649,314.749 248.425,305.525 237.089,305.525ZM125.224,405.028L115.56,405.028C112.246,405.028 109.547,407.726 109.547,411.041C109.547,414.355 112.245,417.054 115.56,417.054L125.224,417.054C128.538,417.054 131.237,414.356 131.237,411.041C131.237,407.726 128.538,405.028 125.224,405.028ZM182.785,302.196L125.62,302.196C116.146,302.196 108.433,309.91 108.433,319.383L108.433,366.209C108.433,375.697 116.147,383.411 125.62,383.411L182.784,383.411C192.258,383.411 199.971,375.697 199.971,366.209L199.971,319.383C199.972,309.91 192.258,302.196 182.785,302.196ZM190.542,405.028L180.878,405.028C177.564,405.028 174.865,407.726 174.865,411.041C174.865,414.355 177.563,417.054 180.878,417.054L190.542,417.054C193.856,417.054 196.555,414.356 196.555,411.041C196.555,407.726 193.857,405.028 190.542,405.028Z" style="fill:white;"/>
            <path d="M187.946,366.209C187.946,369.069 185.63,371.386 182.785,371.386L125.62,371.386C122.775,371.386 120.458,369.069 120.458,366.209L120.458,319.383C120.458,316.538 122.775,314.221 125.62,314.221L182.784,314.221C185.629,314.221 187.946,316.538 187.946,319.383L187.946,366.209Z" style="fill:white;"/>
            <path d="M85.027,218.18C85.027,186.694 110.632,161.074 142.118,161.074C173.604,161.074 199.224,186.694 199.224,218.18C199.224,249.666 173.604,275.286 142.118,275.286C110.632,275.286 85.027,249.666 85.027,218.18ZM142.123,191.232C147.934,191.232 152.644,186.522 152.644,180.712C152.644,174.901 147.934,170.191 142.123,170.191C136.313,170.191 131.603,174.901 131.603,180.712C131.603,186.522 136.313,191.232 142.123,191.232ZM111.586,242.314C108.171,247.015 109.213,253.594 113.913,257.009C118.614,260.424 125.194,259.383 128.609,254.682C132.024,249.981 130.982,243.402 126.281,239.986C121.582,236.571 115.002,237.613 111.586,242.314ZM116.492,209.855C118.288,204.329 115.263,198.393 109.737,196.598C104.211,194.802 98.275,197.826 96.48,203.353C94.684,208.879 97.709,214.815 103.235,216.61C108.761,218.405 114.696,215.381 116.492,209.855ZM152.129,221.434C153.925,215.908 150.901,209.972 145.375,208.177C139.848,206.381 133.913,209.406 132.118,214.932C130.322,220.458 133.346,226.394 138.872,228.189C144.399,229.984 150.333,226.961 152.129,221.434ZM181.012,216.61C186.538,214.814 189.563,208.879 187.767,203.353C185.971,197.826 180.036,194.802 174.51,196.598C168.984,198.394 165.959,204.329 167.755,209.855C169.551,215.381 175.486,218.405 181.012,216.61ZM170.333,257.009C175.033,253.594 176.075,247.015 172.66,242.314C169.245,237.613 162.665,236.571 157.965,239.986C153.264,243.402 152.222,249.981 155.637,254.682C159.052,259.383 165.632,260.424 170.333,257.009Z" style="fill:white;"/>
            <path d="M227.22,233.769C227.22,217.535 240.433,204.322 256.726,204.322L305.091,203.892L305.091,228.519L270.056,228.519C259.776,228.519 251.402,236.893 251.402,247.173L251.402,274.787L227.22,274.787L227.22,233.769Z" style="fill:white;"/>
            <path d="M317.117,195.962L413.217,195.903C424.392,195.903 433.484,204.995 433.484,216.17C433.484,225.365 427.294,233.431 418.438,235.763C416.708,236.218 414.962,236.438 413.217,236.438L317.116,236.438L317.117,195.962Z" style="fill:white;"/>
            <g transform="matrix(1,0,0,1,-0.0005,52.9199)">
                <path d="M481.307,210.634C479.269,209.637 476.805,209.886 474.986,211.294L416.295,256.902L391.277,256.902L391.277,255.289C391.277,251.975 388.579,249.276 385.264,249.276L352.752,249.276L352.752,243.718C352.752,231.942 343.176,222.366 331.4,222.366L263.427,222.366L263.427,194.253C263.427,190.601 266.404,187.624 270.056,187.624L305.091,187.624L305.091,189.53C305.091,192.844 307.789,195.543 311.104,195.543L413.217,195.543C415.974,195.543 418.746,195.176 421.488,194.472C435.625,190.732 445.509,177.886 445.509,163.25C445.509,145.447 431.02,130.957 413.216,130.957L311.103,131.03C307.789,131.045 305.09,133.728 305.09,137.043L305.09,138.944L256.666,139.375C233.803,139.375 215.193,157.985 215.193,180.848L215.193,222.365L180.985,222.365C199.229,209.906 211.248,188.967 211.248,165.259C211.248,127.144 180.231,96.142 142.117,96.142C104.003,96.142 73,127.144 73,165.259C73,188.967 85.013,209.906 103.254,222.365L96.51,222.365C84.734,222.365 75.158,231.941 75.158,243.717L75.158,249.568L62.583,249.568L35.723,237.924C33.875,237.147 31.734,237.308 30.033,238.423C28.347,239.523 27.32,241.415 27.32,243.438L27.32,324.36C27.32,326.384 28.347,328.261 30.033,329.375C31.03,330.035 32.174,330.372 33.333,330.372C34.14,330.372 34.946,330.211 35.709,329.873L62.559,318.332L75.158,318.332L75.158,365.95C75.158,377.726 84.734,387.302 96.51,387.302L136.714,387.302C139.58,403.488 153.681,415.855 170.686,415.855L258.075,415.855C275.079,415.855 289.181,403.488 292.047,387.302L331.401,387.302C343.177,387.302 352.753,377.726 352.753,365.95L352.753,356.8L385.265,356.8C388.579,356.8 391.278,354.102 391.278,350.787L391.278,349.159L416.296,349.159L474.987,394.767C476.058,395.603 477.363,396.043 478.668,396.043C479.563,396.043 480.472,395.838 481.308,395.427C483.376,394.415 484.681,392.318 484.681,390.03L484.681,216.03C484.68,213.743 483.375,211.645 481.307,210.634ZM317.117,143.042L413.217,142.983C424.392,142.983 433.484,152.075 433.484,163.25C433.484,172.445 427.295,180.511 418.438,182.843C416.708,183.298 414.962,183.518 413.217,183.518L317.117,183.518L317.117,143.042ZM55.33,308.362L39.345,315.24L39.345,252.59L55.33,259.527L55.33,308.362ZM75.158,306.309L67.356,306.309L67.356,261.595L75.158,261.595L75.158,306.309ZM227.22,180.849C227.22,164.615 240.433,151.402 256.726,151.402L305.091,150.972L305.091,175.599L270.056,175.599C259.776,175.599 251.402,183.973 251.402,194.253L251.402,221.867L227.22,221.867L227.22,180.849ZM85.027,165.26C85.027,133.774 110.632,108.154 142.118,108.154C173.604,108.154 199.224,133.774 199.224,165.26C199.224,196.746 173.604,222.366 142.118,222.366C110.632,222.366 85.027,196.746 85.027,165.26ZM258.075,403.831L170.686,403.831C160.332,403.831 151.577,396.821 148.938,387.303L279.824,387.303C277.184,396.821 268.429,403.831 258.075,403.831ZM340.728,339.657L314.033,339.657C315.939,336.273 317.117,332.428 317.117,328.277C317.117,324.121 315.936,320.271 314.027,316.882L340.728,316.882L340.728,339.657ZM340.728,243.718L340.728,304.857L293.697,304.857C280.792,304.857 270.292,315.372 270.292,328.277C270.292,341.182 280.792,351.682 293.697,351.682L340.728,351.682L340.728,365.951C340.728,371.098 336.548,375.278 331.401,375.278L96.51,375.278C91.363,375.278 87.183,371.098 87.183,365.951L87.183,243.718C87.183,238.571 91.363,234.391 96.51,234.391L331.401,234.391C336.548,234.391 340.728,238.571 340.728,243.718ZM305.091,328.277C305.091,334.554 299.988,339.657 293.696,339.657C287.419,339.657 282.316,334.554 282.316,328.277C282.316,321.986 287.419,316.882 293.696,316.882C299.988,316.882 305.091,321.986 305.091,328.277ZM379.253,344.775L352.753,344.775L352.753,261.301L379.253,261.301L379.253,344.775ZM412.322,337.135L391.278,337.135L391.278,268.928L412.322,268.928L412.322,337.135ZM472.655,377.757L424.348,340.214L424.348,265.847L472.655,228.304L472.655,377.757Z" style="fill-rule:nonzero;"/>
                <path d="M182.785,249.276L125.62,249.276C116.146,249.276 108.433,256.99 108.433,266.463L108.433,313.289C108.433,322.777 116.147,330.491 125.62,330.491L182.784,330.491C192.258,330.491 199.971,322.777 199.971,313.289L199.971,266.463C199.972,256.99 192.258,249.276 182.785,249.276ZM187.947,313.289C187.947,316.149 185.63,318.466 182.785,318.466L125.62,318.466C122.775,318.466 120.458,316.149 120.458,313.289L120.458,266.463C120.458,263.618 122.775,261.301 125.62,261.301L182.784,261.301C185.629,261.301 187.946,263.618 187.946,266.463L187.946,313.289L187.947,313.289Z" style="fill-rule:nonzero;"/>
                <path d="M190.542,352.108L180.878,352.108C177.564,352.108 174.865,354.806 174.865,358.121C174.865,361.435 177.563,364.134 180.878,364.134L190.542,364.134C193.856,364.134 196.555,361.436 196.555,358.121C196.555,354.806 193.857,352.108 190.542,352.108Z" style="fill-rule:nonzero;"/>
                <path d="M157.883,352.108L148.219,352.108C144.905,352.108 142.206,354.806 142.206,358.121C142.206,361.435 144.904,364.134 148.219,364.134L157.883,364.134C161.197,364.134 163.896,361.436 163.896,358.121C163.896,354.806 161.198,352.108 157.883,352.108Z" style="fill-rule:nonzero;"/>
                <path d="M125.224,352.108L115.56,352.108C112.246,352.108 109.547,354.806 109.547,358.121C109.547,361.435 112.245,364.134 115.56,364.134L125.224,364.134C128.538,364.134 131.237,361.436 131.237,358.121C131.237,354.806 128.538,352.108 125.224,352.108Z" style="fill-rule:nonzero;"/>
                <path d="M237.089,252.605C225.768,252.605 216.543,261.829 216.543,273.165L216.543,331.752C216.543,343.088 225.767,352.312 237.089,352.312C248.425,352.312 257.649,343.088 257.649,331.752L257.649,273.165C257.65,261.829 248.425,252.605 237.089,252.605ZM245.624,331.753C245.624,336.46 241.796,340.288 237.089,340.288C232.382,340.288 228.569,336.46 228.569,331.753L228.569,273.166C228.569,268.458 232.382,264.631 237.089,264.631C241.796,264.631 245.624,268.459 245.624,273.166L245.624,331.753Z" style="fill-rule:nonzero;"/>
                <path d="M319.082,260.436L310.532,260.436C307.218,260.436 304.519,263.134 304.519,266.449C304.519,269.763 307.217,272.462 310.532,272.462L319.082,272.462C322.396,272.462 325.095,269.764 325.095,266.449C325.095,263.135 322.396,260.436 319.082,260.436Z" style="fill-rule:nonzero;"/>
                <path d="M290.925,260.436L282.361,260.436C279.047,260.436 276.348,263.134 276.348,266.449C276.348,269.763 279.046,272.462 282.361,272.462L290.925,272.462C294.239,272.462 296.938,269.764 296.938,266.449C296.938,263.135 294.239,260.436 290.925,260.436Z" style="fill-rule:nonzero;"/>
                <path d="M142.123,138.312C147.934,138.312 152.644,133.602 152.644,127.792C152.644,121.981 147.934,117.271 142.123,117.271C136.313,117.271 131.603,121.981 131.603,127.792C131.603,133.602 136.313,138.312 142.123,138.312Z" style="fill-rule:nonzero;"/>
                <path d="M181.012,163.69C186.538,161.894 189.563,155.959 187.767,150.433C185.971,144.906 180.036,141.882 174.51,143.678C168.984,145.474 165.959,151.409 167.755,156.935C169.551,162.461 175.486,165.485 181.012,163.69Z" style="fill-rule:nonzero;"/>
                <path d="M170.333,204.089C175.033,200.674 176.075,194.095 172.66,189.394C169.245,184.693 162.665,183.651 157.965,187.066C153.264,190.482 152.222,197.061 155.637,201.762C159.052,206.463 165.632,207.504 170.333,204.089Z" style="fill-rule:nonzero;"/>
                <path d="M111.586,189.394C108.171,194.095 109.213,200.674 113.913,204.089C118.614,207.504 125.194,206.463 128.609,201.762C132.024,197.061 130.982,190.482 126.281,187.066C121.582,183.651 115.002,184.693 111.586,189.394Z" style="fill-rule:nonzero;"/>
                <path d="M116.492,156.935C118.288,151.409 115.263,145.473 109.737,143.678C104.211,141.882 98.275,144.906 96.48,150.433C94.684,155.959 97.709,161.895 103.235,163.69C108.761,165.485 114.696,162.461 116.492,156.935Z" style="fill-rule:nonzero;"/>
                <path d="M152.129,168.514C153.925,162.988 150.901,157.052 145.375,155.257C139.848,153.461 133.913,156.486 132.118,162.012C130.322,167.538 133.346,173.474 138.872,175.269C144.399,177.064 150.333,174.041 152.129,168.514Z" style="fill-rule:nonzero;"/>
            </g>
        </g>
    </g>
</svg>